<svg width="101" height="98" viewBox="0 0 101 98" fill="none" xmlns="http://www.w3.org/2000/svg">
<g filter="url(#filter0_dd_180_1787)">
<rect x="36" y="21" width="24" height="16" rx="2" fill="white"/>
<rect x="35.5" y="20.5" width="25" height="17" rx="2.5" stroke="#D6DCE5"/>
<path d="M44.3918 29.0409C44.3918 29.9253 45.0629 30.6108 45.9262 30.6108C46.1704 30.6108 46.3792 30.561 46.6371 30.4356V29.7449C46.4104 29.9794 46.2097 30.0742 45.9525 30.0742C45.3814 30.0742 44.9761 29.6458 44.9761 29.0365C44.9761 28.4591 45.3945 28.0035 45.9262 28.0035C46.1967 28.0035 46.4015 28.1031 46.6371 28.3418V27.6514C46.3884 27.5209 46.1836 27.4667 45.9396 27.4667C45.0806 27.4667 44.3918 28.1663 44.3918 29.0409Z" fill="#251F1F"/>
<path d="M42.9365 28.3104C42.9365 28.4727 43.0365 28.5588 43.3768 28.689C44.0219 28.9333 44.2131 29.1495 44.2131 29.6276C44.2131 30.2098 43.7995 30.6152 43.2103 30.6152C42.7789 30.6152 42.4652 30.4395 42.2038 30.0426L42.5701 29.6776C42.7007 29.9389 42.9186 30.0788 43.1889 30.0788C43.4421 30.0788 43.6293 29.8983 43.6293 29.6545C43.6293 29.5282 43.5724 29.4195 43.4592 29.3432C43.4022 29.307 43.2892 29.2528 43.0673 29.1719C42.5347 28.9736 42.352 28.7614 42.352 28.3469C42.352 27.8545 42.7444 27.4849 43.2587 27.4849C43.5774 27.4849 43.869 27.5976 44.113 27.8185L43.8162 28.2205C43.6685 28.0492 43.529 27.9768 43.359 27.9768C43.1145 27.9768 42.9365 28.1209 42.9365 28.3104Z" fill="#251F1F"/>
<path fill-rule="evenodd" clip-rule="evenodd" d="M39.6018 27.5347H38.7693V30.543H39.5973C40.0374 30.543 40.3556 30.4356 40.6346 30.1957C40.9662 29.9116 41.1623 29.4835 41.1623 29.0409C41.1623 28.1532 40.5212 27.5347 39.6018 27.5347ZM40.264 29.7948C40.0858 29.961 39.8545 30.0336 39.4881 30.0336H39.336V28.0446H39.4881C39.8545 28.0446 40.0766 28.1121 40.264 28.2878C40.4604 28.4684 40.578 28.7483 40.578 29.0365C40.578 29.3253 40.4604 29.6142 40.264 29.7948Z" fill="#251F1F"/>
<path d="M41.9903 27.5347H41.4232V30.543H41.9903V27.5347Z" fill="#251F1F"/>
<path d="M50.3578 27.5347L51.1333 29.5551L51.9186 27.5347H52.5331L51.2772 30.6203H50.9722L49.7386 27.5347H50.3578Z" fill="#251F1F"/>
<path d="M52.7896 30.543H54.3977V30.0336H53.3562V29.2217H54.3592V28.7121H53.3562V28.0446H54.3977V27.5347H52.7896V30.543Z" fill="#251F1F"/>
<path fill-rule="evenodd" clip-rule="evenodd" d="M55.614 27.5347C56.268 27.5347 56.6433 27.8596 56.6433 28.4227C56.6433 28.8834 56.4077 29.1858 55.9805 29.2757L56.8957 30.543H56.1985L55.4136 29.3345H55.3394V30.543H54.7732V27.5347H55.614ZM55.3394 28.9197H55.5055C55.8676 28.9197 56.0595 28.7568 56.0595 28.4545C56.0595 28.1617 55.8676 28.0083 55.5142 28.0083H55.3394V28.9197Z" fill="#251F1F"/>
<path fill-rule="evenodd" clip-rule="evenodd" d="M57.0951 27.6924C57.0951 27.6395 57.0596 27.6105 56.9979 27.6105H56.9157V27.8759H56.9767V27.7731L57.0484 27.8759H57.1233L57.039 27.7665C57.0749 27.7563 57.0951 27.7291 57.0951 27.6924ZM56.9871 27.7286H56.9767V27.6591H56.9878C57.0181 27.6591 57.0338 27.6706 57.0338 27.6934C57.0338 27.7167 57.0178 27.7286 56.9871 27.7286Z" fill="#251F1F"/>
<path fill-rule="evenodd" clip-rule="evenodd" d="M56.7867 27.7427C56.7867 27.6142 56.8858 27.5114 57.0101 27.5114C57.1313 27.5114 57.2308 27.6161 57.2308 27.7427C57.2308 27.8701 57.1313 27.9741 57.0101 27.9741C56.8868 27.9741 56.7867 27.871 56.7867 27.7427ZM56.8311 27.743C56.8311 27.8484 56.9112 27.9328 57.0091 27.9328C57.1068 27.9328 57.1862 27.8475 57.1862 27.743C57.1862 27.6394 57.1068 27.5529 57.0091 27.5529C56.9105 27.5529 56.8311 27.6375 56.8311 27.743Z" fill="#251F1F"/>
<g filter="url(#filter1_i_180_1787)">
<path d="M48.3558 30.6344C47.5061 30.6344 46.8171 29.9214 46.8171 29.0422V29.04C46.8171 28.6025 46.9883 28.2045 47.2652 27.918C47.2652 27.9158 47.2673 27.9158 47.2673 27.9136C47.2694 27.9136 47.2694 27.9114 47.2716 27.9114C47.5484 27.6249 47.9331 27.4478 48.3558 27.4478H48.3579C49.2076 27.4478 49.8966 28.1608 49.8966 29.04V29.0422C49.8966 29.4796 49.7253 29.8755 49.4485 30.1642C49.4485 30.1664 49.4464 30.1664 49.4464 30.1686C49.4443 30.1686 49.4443 30.1707 49.4422 30.1707C49.1632 30.4572 48.7806 30.6344 48.3579 30.6344H48.3558Z" fill="url(#paint0_linear_180_1787)"/>
</g>
</g>
<defs>
<filter id="filter0_dd_180_1787" x="-5" y="0" width="106" height="98" filterUnits="userSpaceOnUse" color-interpolation-filters="sRGB">
<feFlood flood-opacity="0" result="BackgroundImageFix"/>
<feColorMatrix in="SourceAlpha" type="matrix" values="0 0 0 0 0 0 0 0 0 0 0 0 0 0 0 0 0 0 127 0" result="hardAlpha"/>
<feOffset dy="2"/>
<feGaussianBlur stdDeviation="10"/>
<feColorMatrix type="matrix" values="0 0 0 0 0.717647 0 0 0 0 0.717647 0 0 0 0 0.717647 0 0 0 0.08 0"/>
<feBlend mode="normal" in2="BackgroundImageFix" result="effect1_dropShadow_180_1787"/>
<feColorMatrix in="SourceAlpha" type="matrix" values="0 0 0 0 0 0 0 0 0 0 0 0 0 0 0 0 0 0 127 0" result="hardAlpha"/>
<feOffset dy="20"/>
<feGaussianBlur stdDeviation="20"/>
<feColorMatrix type="matrix" values="0 0 0 0 0.717647 0 0 0 0 0.717647 0 0 0 0 0.717647 0 0 0 0.08 0"/>
<feBlend mode="normal" in2="effect1_dropShadow_180_1787" result="effect2_dropShadow_180_1787"/>
<feBlend mode="normal" in="SourceGraphic" in2="effect2_dropShadow_180_1787" result="shape"/>
</filter>
<filter id="filter1_i_180_1787" x="46.8171" y="27.4478" width="4.05627" height="4.65201" filterUnits="userSpaceOnUse" color-interpolation-filters="sRGB">
<feFlood flood-opacity="0" result="BackgroundImageFix"/>
<feBlend mode="normal" in="SourceGraphic" in2="BackgroundImageFix" result="shape"/>
<feColorMatrix in="SourceAlpha" type="matrix" values="0 0 0 0 0 0 0 0 0 0 0 0 0 0 0 0 0 0 127 0" result="hardAlpha"/>
<feOffset dx="0.976924" dy="1.46539"/>
<feGaussianBlur stdDeviation="0.976924"/>
<feComposite in2="hardAlpha" operator="arithmetic" k2="-1" k3="1"/>
<feColorMatrix type="matrix" values="0 0 0 0 0 0 0 0 0 0 0 0 0 0 0 0 0 0 0.35 0"/>
<feBlend mode="normal" in2="shape" result="effect1_innerShadow_180_1787"/>
</filter>
<linearGradient id="paint0_linear_180_1787" x1="47.5498" y1="27.4478" x2="50.152" y2="29.5756" gradientUnits="userSpaceOnUse">
<stop stop-color="#EF3823"/>
<stop offset="0.489583" stop-color="#F04D22"/>
<stop offset="1" stop-color="#F7911D"/>
</linearGradient>
</defs>
</svg>
