<svg width="25" height="16" viewBox="0 0 25 16" fill="none" xmlns="http://www.w3.org/2000/svg">
<rect x="1.17163" y="0.5" width="23" height="15" rx="1.5" fill="white"/>
<rect x="1.17163" y="0.5" width="23" height="15" rx="1.5" stroke="#BFBFBF"/>
<path d="M9.06396 4.53125H7.40569C6.673 4.56589 6.07408 4.86101 5.90114 5.46957C5.81097 5.78696 5.76134 6.13552 5.69083 6.46453C5.33237 8.13743 5.01452 9.85638 4.67163 11.4959H17.5816C18.5797 11.4959 19.265 11.285 19.4502 10.4928C19.5362 10.1249 19.6186 9.70803 19.701 9.30375C20.0218 7.72742 20.343 6.1512 20.6716 4.53125H9.06396Z" fill="#B82126"/>
<path d="M15.7249 8.69228C15.5458 8.86756 15.0432 8.91735 15.0946 8.49837C15.1373 8.15039 15.5162 8.07644 15.9268 8.1267C15.8963 8.31704 15.8613 8.55873 15.7249 8.69228ZM15.1593 7.33489C15.1422 7.43089 15.1159 7.51776 15.0946 7.60959C15.2997 7.5582 15.9381 7.40058 15.9996 7.67421C16.02 7.76513 15.9848 7.86173 15.9592 7.93279C15.3819 7.8781 14.9113 7.97401 14.7876 8.38524C14.7047 8.66069 14.7969 8.93175 14.9734 9.00742C15.3135 9.15308 15.7271 8.98621 15.8703 8.75694C15.8554 8.83632 15.8413 8.91647 15.846 9.01548H16.145C16.1482 8.72918 16.1898 8.49743 16.2339 8.2398C16.2714 8.02041 16.342 7.80322 16.3308 7.60959C16.3052 7.16614 15.5705 7.323 15.1593 7.33489ZM18.1569 8.82963C17.923 8.83465 17.8067 8.6899 17.8013 8.4499C17.792 8.02957 17.9764 7.56259 18.3508 7.52071C18.5251 7.50123 18.6513 7.54176 18.779 7.58537C18.6618 8.05749 18.7041 8.8179 18.1569 8.82963ZM18.9325 6.6077C18.9027 6.86879 18.8629 7.11986 18.8113 7.35911C17.9591 7.08937 17.4364 7.71638 17.4458 8.49028C17.4477 8.63996 17.4734 8.78838 17.567 8.89426C17.7284 9.07672 18.1903 9.12036 18.4235 8.96701C18.4687 8.93734 18.5148 8.88331 18.5447 8.84582C18.5672 8.81759 18.6029 8.74374 18.6093 8.76498C18.5971 8.84701 18.5787 8.92297 18.577 9.01548H18.8921C18.9528 8.14433 19.1406 7.40024 19.28 6.6077H18.9325ZM10.0367 8.70038C9.85081 8.89724 9.39384 8.89423 9.35801 8.563C9.34239 8.41887 9.3961 8.26775 9.42264 8.11864C9.4495 7.9677 9.46882 7.82289 9.49533 7.69037C9.67842 7.46681 10.2164 7.43983 10.271 7.81159C10.3184 8.13436 10.1906 8.53734 10.0367 8.70038ZM10.3114 7.33489C10.0174 7.22443 9.65897 7.35628 9.50361 7.48171C9.50415 7.48723 9.49991 7.48799 9.49533 7.48839C9.498 7.48617 9.50085 7.48394 9.50361 7.48171C9.50358 7.48124 9.50355 7.48083 9.50343 7.48033C9.50606 7.42637 9.52504 7.38882 9.52768 7.33489H9.22873C9.10415 8.16372 8.95641 8.96937 8.80049 9.76689H9.14791C9.1982 9.45627 9.23142 9.12861 9.30145 8.83773C9.38079 9.14367 9.89888 9.08519 10.1175 8.96701C10.5686 8.72309 10.9165 7.56218 10.3114 7.33489ZM11.9597 7.91663H11.1436C11.1695 7.72902 11.3382 7.52281 11.6042 7.51265C11.8545 7.50308 12.0337 7.60454 11.9597 7.91663ZM11.6284 7.30257C11.3774 7.3219 11.1652 7.39415 11.0144 7.55302C10.8294 7.74791 10.6796 8.17875 10.7235 8.57109C10.7861 9.13084 11.483 9.11076 12.0405 8.97508C12.05 8.87685 12.0737 8.79287 12.089 8.70038C11.8593 8.78631 11.4606 8.90625 11.2244 8.75694C11.0461 8.64419 11.0451 8.35867 11.1032 8.11054C11.4779 8.09862 11.8673 8.10091 12.2425 8.11054C12.2663 7.93467 12.3344 7.74292 12.2748 7.56921C12.1962 7.33988 11.9148 7.28052 11.6284 7.30257ZM8.57426 7.33489C8.56485 7.33624 8.56548 7.34766 8.56617 7.35911C8.48962 7.93163 8.38603 8.47713 8.27532 9.01548H8.62273C8.70622 8.43911 8.80184 7.8749 8.92168 7.33489H8.57426ZM17.6398 7.34295C17.3327 7.18945 17.0771 7.44705 16.9772 7.60149C17.0057 7.52225 17.0073 7.41614 17.0338 7.33489H16.7267C16.644 7.91196 16.5441 8.47199 16.4278 9.01548H16.7833C16.7856 8.79274 16.8293 8.62797 16.8641 8.40949C16.9384 7.94308 17.0475 7.43155 17.5913 7.58537C17.6093 7.50647 17.6168 7.41699 17.6398 7.34295ZM13.7372 8.61956C13.7052 8.53683 13.6969 8.40021 13.7049 8.29636C13.7229 8.06289 13.8079 7.77865 13.9392 7.64999C14.1204 7.47239 14.4781 7.50179 14.7633 7.60149C14.7722 7.50534 14.7915 7.41959 14.8038 7.32683C14.3359 7.2504 13.8918 7.29793 13.6564 7.54496C13.426 7.78678 13.2749 8.34257 13.3817 8.69228C13.5067 9.10151 14.0672 9.12375 14.521 8.96701C14.541 8.88476 14.5517 8.79305 14.5695 8.70844C14.3215 8.83729 13.8474 8.90424 13.7372 8.61956ZM13.5433 7.33489C13.2353 7.21047 12.9931 7.42072 12.8808 7.61768C12.9062 7.53006 12.9168 7.42744 12.9373 7.33489H12.6303C12.5553 7.91701 12.4446 8.46352 12.3394 9.01548H12.6869C12.7356 8.68783 12.7566 8.2462 12.8646 7.93279C12.951 7.68234 13.1769 7.46897 13.5029 7.58537C13.5075 7.49297 13.534 7.42245 13.5433 7.33489ZM7.94405 6.65617C7.89442 6.97821 7.83852 7.29398 7.78245 7.60959C7.42252 7.61338 7.05502 7.62737 6.70785 7.60149C6.77342 7.29276 6.82044 6.96541 6.88557 6.65617H6.49778C6.35892 7.44385 6.23265 8.24403 6.07764 9.01548H6.47353C6.53564 8.61972 6.59372 8.21994 6.6755 7.84391C7.01307 7.83559 7.41765 7.8211 7.74204 7.852C7.67516 8.24297 7.59434 8.61997 7.53197 9.01548H7.9279C8.05508 8.21621 8.18913 7.42377 8.34804 6.65617H7.94405ZM8.92978 7.01169C8.99905 6.964 9.08824 6.74665 8.98634 6.65617C8.95406 6.62753 8.90004 6.61922 8.82474 6.63196C8.75488 6.64375 8.71469 6.66747 8.68739 6.70465C8.64347 6.76444 8.60325 6.94471 8.67121 7.01169C8.7374 7.07691 8.8857 7.04203 8.92978 7.01169Z" fill="white"/>
</svg>
