<svg width="107" height="98" viewBox="0 0 107 98" fill="none" xmlns="http://www.w3.org/2000/svg">
<g filter="url(#filter0_dd_180_1795)">
<rect x="41.8359" y="21" width="24" height="15.4615" rx="2" fill="white"/>
<rect x="41.3359" y="20.5" width="25" height="16.4615" rx="2.5" stroke="#BFBFBF"/>
<path d="M55.56 25.5557H52.0263V31.9058H55.56V25.5557Z" fill="#FF5F00"/>
<path d="M52.2507 28.7307C52.2501 28.1192 52.3887 27.5155 52.656 26.9654C52.9232 26.4153 53.3121 25.9333 53.7931 25.5557C53.1974 25.0874 52.4819 24.7962 51.7285 24.7153C50.975 24.6345 50.214 24.7672 49.5325 25.0984C48.8509 25.4296 48.2763 25.9458 47.8743 26.5882C47.4722 27.2305 47.259 27.973 47.259 28.7307C47.259 29.4885 47.4722 30.231 47.8743 30.8733C48.2763 31.5156 48.8509 32.0319 49.5325 32.3631C50.214 32.6943 50.975 32.827 51.7285 32.7461C52.4819 32.6653 53.1974 32.3741 53.7931 31.9058C53.3121 31.5282 52.9232 31.0461 52.656 30.496C52.3887 29.946 52.2501 29.3423 52.2507 28.7307Z" fill="#EB001B"/>
<path d="M60.3271 28.7307C60.3271 29.4885 60.1139 30.231 59.7119 30.8733C59.3099 31.5156 58.7353 32.0319 58.0537 32.3631C57.3722 32.6943 56.6112 32.827 55.8578 32.7461C55.1044 32.6653 54.3889 32.3741 53.7931 31.9058C54.2738 31.5278 54.6624 31.0457 54.9296 30.4957C55.1968 29.9457 55.3356 29.3422 55.3356 28.7307C55.3356 28.1193 55.1968 27.5158 54.9296 26.9658C54.6624 26.4158 54.2738 25.9337 53.7931 25.5557C54.3889 25.0874 55.1044 24.7962 55.8578 24.7153C56.6112 24.6345 57.3722 24.7672 58.0537 25.0984C58.7353 25.4296 59.3099 25.9459 59.7119 26.5882C60.1139 27.2305 60.3271 27.973 60.3271 28.7307Z" fill="#F79E1B"/>
<path d="M59.9418 31.2332V31.1032H59.9942V31.0767H59.8607V31.1032H59.9131V31.2332H59.9418ZM60.201 31.2332V31.0765H60.16L60.113 31.1843L60.0659 31.0765H60.0249V31.2332H60.0538V31.115L60.098 31.2169H60.1279L60.1721 31.1147V31.2332H60.201Z" fill="#F79E1B"/>
</g>
<defs>
<filter id="filter0_dd_180_1795" x="0.835938" y="0" width="106" height="97.4615" filterUnits="userSpaceOnUse" color-interpolation-filters="sRGB">
<feFlood flood-opacity="0" result="BackgroundImageFix"/>
<feColorMatrix in="SourceAlpha" type="matrix" values="0 0 0 0 0 0 0 0 0 0 0 0 0 0 0 0 0 0 127 0" result="hardAlpha"/>
<feOffset dy="2"/>
<feGaussianBlur stdDeviation="10"/>
<feColorMatrix type="matrix" values="0 0 0 0 0.717647 0 0 0 0 0.717647 0 0 0 0 0.717647 0 0 0 0.08 0"/>
<feBlend mode="normal" in2="BackgroundImageFix" result="effect1_dropShadow_180_1795"/>
<feColorMatrix in="SourceAlpha" type="matrix" values="0 0 0 0 0 0 0 0 0 0 0 0 0 0 0 0 0 0 127 0" result="hardAlpha"/>
<feOffset dy="20"/>
<feGaussianBlur stdDeviation="20"/>
<feColorMatrix type="matrix" values="0 0 0 0 0.717647 0 0 0 0 0.717647 0 0 0 0 0.717647 0 0 0 0.08 0"/>
<feBlend mode="normal" in2="effect1_dropShadow_180_1795" result="effect2_dropShadow_180_1795"/>
<feBlend mode="normal" in="SourceGraphic" in2="effect2_dropShadow_180_1795" result="shape"/>
</filter>
</defs>
</svg>
