<svg width="107" height="98" viewBox="0 0 107 98" fill="none" xmlns="http://www.w3.org/2000/svg">
<g filter="url(#filter0_dd_180_1793)">
<rect x="41" y="21" width="24.8358" height="16" rx="2" fill="white"/>
<rect x="40.5" y="20.5" width="25.8358" height="17" rx="2.5" stroke="#BFBFBF"/>
<path d="M53.266 26.3926L52.1076 31.8076H50.7068L51.8654 26.3926H53.266ZM59.1596 29.8891L59.8971 27.8555L60.3215 29.8891H59.1596ZM60.7225 31.8076H62.0182L60.8876 26.3926H59.6916C59.4229 26.3926 59.1961 26.5489 59.0952 26.7898L56.9936 31.8076H58.4646L58.7567 30.999H60.5539L60.7225 31.8076ZM57.0666 30.0396C57.0726 28.6104 55.0901 28.5317 55.1039 27.8933C55.108 27.6987 55.2932 27.4924 55.6979 27.4394C55.8989 27.4132 56.4517 27.3931 57.0793 27.6819L57.3251 26.5336C56.9879 26.4112 56.5542 26.2935 56.0146 26.2935C54.6301 26.2935 53.6556 27.0296 53.6474 28.0837C53.6386 28.8632 54.3431 29.2981 54.8738 29.5573C55.4196 29.8228 55.6029 29.9928 55.6005 30.2302C55.5969 30.5937 55.1652 30.7538 54.7624 30.7601C54.058 30.7712 53.6493 30.57 53.3235 30.4182L53.0696 31.6047C53.3968 31.755 54.001 31.8856 54.6277 31.8923C56.0991 31.8923 57.0618 31.1653 57.0666 30.0396ZM51.2644 26.3926L48.9948 31.8076H47.5138L46.3971 27.486C46.3292 27.2199 46.2702 27.1225 46.064 27.0103C45.7276 26.8277 45.1714 26.6562 44.6821 26.5499L44.7155 26.3926H47.0991C47.4028 26.3926 47.6761 26.5948 47.745 26.9446L48.335 30.0783L49.7926 26.3926H51.2644Z" fill="#1434CB"/>
</g>
<defs>
<filter id="filter0_dd_180_1793" x="0" y="0" width="106.836" height="98" filterUnits="userSpaceOnUse" color-interpolation-filters="sRGB">
<feFlood flood-opacity="0" result="BackgroundImageFix"/>
<feColorMatrix in="SourceAlpha" type="matrix" values="0 0 0 0 0 0 0 0 0 0 0 0 0 0 0 0 0 0 127 0" result="hardAlpha"/>
<feOffset dy="2"/>
<feGaussianBlur stdDeviation="10"/>
<feColorMatrix type="matrix" values="0 0 0 0 0.717647 0 0 0 0 0.717647 0 0 0 0 0.717647 0 0 0 0.08 0"/>
<feBlend mode="normal" in2="BackgroundImageFix" result="effect1_dropShadow_180_1793"/>
<feColorMatrix in="SourceAlpha" type="matrix" values="0 0 0 0 0 0 0 0 0 0 0 0 0 0 0 0 0 0 127 0" result="hardAlpha"/>
<feOffset dy="20"/>
<feGaussianBlur stdDeviation="20"/>
<feColorMatrix type="matrix" values="0 0 0 0 0.717647 0 0 0 0 0.717647 0 0 0 0 0.717647 0 0 0 0.08 0"/>
<feBlend mode="normal" in2="effect1_dropShadow_180_1793" result="effect2_dropShadow_180_1793"/>
<feBlend mode="normal" in="SourceGraphic" in2="effect2_dropShadow_180_1793" result="shape"/>
</filter>
</defs>
</svg>
